<svg version="1.1" id="_x32_" xmlns="http://www.w3.org/2000/svg" x="0" y="0" viewBox="0 0 512 512" style="width:128px;height:128px;opacity:1" xml:space="preserve"><style>.st0{fill:#4b4b4b}</style><path class="st0" d="M437.014 74.978C390.77 28.696 326.608-.014 256 0 185.393-.014 121.222 28.696 74.977 74.978 28.696 121.222-.015 185.392 0 256c-.015 70.608 28.696 134.778 74.977 181.022C121.222 483.304 185.393 512.015 256 512c70.608.015 134.77-28.696 181.014-74.978 46.289-46.244 75-110.414 74.986-181.022.014-70.608-28.696-134.778-74.986-181.022zm-37.54 37.548c36.763 36.799 59.414 87.355 59.43 143.474-.015 56.118-22.667 106.674-59.43 143.474-36.807 36.763-87.363 59.416-143.474 59.43-56.119-.014-106.674-22.667-143.474-59.43-36.764-36.8-59.415-87.356-59.43-143.474.014-56.118 22.666-106.674 59.429-143.474 36.8-36.763 87.356-59.415 143.474-59.43 56.112.016 106.668 22.667 143.475 59.43z" style="fill:#fff"/><path class="st0" d="M246.681 303.592c.312 2.075 1.349 4.067 3.104 5.986 1.748 1.911 3.822 2.866 6.215 2.866 5.57 0 8.681-2.948 9.311-8.852l18.644-143.214c.311-2.533.474-6.126.474-10.748 0-7.17-2.466-13.689-7.4-19.593-4.94-5.889-11.948-8.837-21.029-8.837-9.415 0-16.496 3.022-21.266 9.066-4.778 5.904-7.171 12.356-7.171 19.364 0 4.31.156 7.888.474 10.748l18.644 143.214zM256 390.792c8.118 0 14.962-2.778 20.548-8.362 5.57-5.563 8.356-12.422 8.356-20.541 0-8.126-2.785-14.978-8.356-20.556-5.414-5.422-12.266-8.126-20.548-8.126-8.118 0-14.971 2.8-20.556 8.364-5.578 5.585-8.356 12.348-8.356 20.318 0 7.637 2.778 14.407 8.356 20.303 5.585 5.742 12.438 8.6 20.556 8.6z" style="fill:#fff"/></svg>